<svg viewBox="0 0 307 43" xmlns="http://www.w3.org/2000/svg" data-logo="logo">
        <g transform="translate(0, 1) rotate(0)" id="logogram" style="opacity: 1;"><path fill="#7CCF00" d="M9.00537 3.67782C7.57471 4.67818 6.28101 5.86093 5.15796 7.19235C9.74726 6.76628 15.5778 7.462 22.347 10.8466C29.5756 14.4608 35.3964 14.583 39.4474 13.8016C39.0798 12.6887 38.617 11.6191 38.0689 10.6023C33.4316 11.0914 27.4866 10.444 20.5582 6.97993C16.1586 4.78013 12.2804 3.87396 9.00537 3.67782ZM35.36 6.7466C31.6979 2.65495 26.376 0.0799561 20.4526 0.0799561C18.7131 0.0799561 17.0253 0.302063 15.4163 0.719436C17.5955 1.31404 19.9105 2.18394 22.347 3.40222C27.4196 5.93848 31.799 6.75511 35.36 6.7466ZM40.3135 17.708C35.4195 18.6744 28.6614 18.4759 20.5582 14.4243C12.9826 10.6365 6.95307 10.6842 2.88654 11.5879C2.67664 11.6345 2.47168 11.6835 2.27167 11.7345C1.73926 12.8924 1.31427 14.11 1.00934 15.3744C1.33502 15.2874 1.67157 15.2047 2.0188 15.1275C6.95221 14.0312 13.9227 14.0788 22.347 18.291C29.9227 22.0788 35.9522 22.0311 40.0188 21.1274C40.1581 21.0965 40.2954 21.0645 40.4304 21.0315C40.4452 20.7162 40.4526 20.3989 40.4526 20.0799C40.4526 19.2774 40.4054 18.4859 40.3135 17.708ZM39.7774 25.2522C34.9309 26.0995 28.3696 25.7743 20.5582 21.8687C12.9826 18.0809 6.95307 18.1286 2.88654 19.0323C1.98389 19.2328 1.17188 19.4771 0.455567 19.735C0.453614 19.8497 0.452637 19.9647 0.452637 20.0799C0.452637 31.1256 9.40693 40.0799 20.4526 40.0799C29.7097 40.0799 37.4979 33.7908 39.7774 25.2522Z" clip-rule="evenodd" fill-rule="evenodd"></path></g>
        <g transform="translate(47, 1.5)" id="logotype" style="opacity: 1;"><path d="M19.48 33.34L19.48 33.34Q16.12 33.34 13.43 31.80Q10.73 30.27 9.17 27.34Q7.61 24.42 7.61 20.29L7.61 20.29Q7.61 16.13 9.17 13.20Q10.73 10.27 13.43 8.73Q16.12 7.19 19.48 7.19L19.48 7.19Q22.87 7.19 25.55 8.73Q28.23 10.27 29.80 13.20Q31.36 16.13 31.36 20.29L31.36 20.29Q31.36 24.42 29.80 27.34Q28.23 30.27 25.55 31.80Q22.87 33.34 19.48 33.34ZM19.48 28.71L19.48 28.71Q21.47 28.71 22.94 27.74Q24.42 26.78 25.24 24.89Q26.06 23.00 26.06 20.29L26.06 20.29Q26.06 17.53 25.24 15.65Q24.42 13.76 22.94 12.79Q21.47 11.83 19.48 11.83L19.48 11.83Q17.52 11.83 16.03 12.80Q14.54 13.77 13.72 15.66Q12.90 17.55 12.90 20.29L12.90 20.29Q12.90 23.00 13.72 24.88Q14.54 26.76 16.03 27.74Q17.52 28.71 19.48 28.71ZM38.01 40.14L32.88 40.14L32.88 13.89L37.92 13.89L37.92 17.11L38.16 17.11Q38.52 16.35 39.18 15.55Q39.84 14.75 40.91 14.20Q41.99 13.65 43.61 13.65L43.61 13.65Q45.73 13.65 47.49 14.75Q49.25 15.84 50.30 18.03Q51.35 20.22 51.35 23.48L51.35 23.48Q51.35 26.66 50.33 28.86Q49.30 31.05 47.54 32.19Q45.78 33.32 43.58 33.32L43.58 33.32Q42.02 33.32 40.95 32.79Q39.87 32.27 39.19 31.49Q38.52 30.71 38.16 29.94L38.16 29.94L38.01 29.94L38.01 40.14ZM42.01 29.21L42.01 29.21Q43.34 29.21 44.25 28.47Q45.17 27.74 45.64 26.44Q46.11 25.14 46.11 23.46L46.11 23.46Q46.11 21.79 45.64 20.51Q45.17 19.23 44.26 18.49Q43.36 17.76 42.01 17.76L42.01 17.76Q40.69 17.76 39.77 18.47Q38.84 19.17 38.37 20.45Q37.89 21.72 37.89 23.46L37.89 23.46Q37.89 25.19 38.37 26.48Q38.86 27.77 39.78 28.49Q40.71 29.21 42.01 29.21ZM61.30 33.38L61.30 33.38Q58.38 33.38 56.26 32.18Q54.14 30.98 53.00 28.78Q51.87 26.57 51.87 23.55L51.87 23.55Q51.87 20.59 52.99 18.37Q54.12 16.15 56.19 14.90Q58.26 13.65 61.04 13.65L61.04 13.65Q62.92 13.65 64.55 14.25Q66.17 14.85 67.40 16.06Q68.63 17.26 69.32 19.07Q70.01 20.88 70.01 23.34L70.01 23.34L70.01 24.78L53.97 24.78L53.97 21.57L67.50 21.57L65.11 22.42Q65.11 20.93 64.66 19.83Q64.20 18.73 63.31 18.12Q62.41 17.52 61.08 17.52L61.08 17.52Q59.76 17.52 58.83 18.13Q57.90 18.75 57.42 19.80Q56.94 20.85 56.94 22.20L56.94 22.20L56.94 24.47Q56.94 26.13 57.50 27.26Q58.05 28.39 59.05 28.95Q60.05 29.51 61.38 29.51L61.38 29.51Q62.29 29.51 63.02 29.26Q63.76 29.00 64.28 28.50Q64.80 27.99 65.08 27.26L65.08 27.26L69.72 28.13Q69.26 29.70 68.12 30.89Q66.97 32.08 65.25 32.73Q63.54 33.38 61.30 33.38ZM76.37 21.94L76.37 21.94L76.37 33L71.24 33L71.24 13.89L76.08 13.89L76.16 18.66L75.86 18.66Q76.61 16.27 78.14 14.96Q79.67 13.65 82.09 13.65L82.09 13.65Q84.08 13.65 85.55 14.52Q87.02 15.38 87.84 17.00Q88.66 18.61 88.66 20.85L88.66 20.85L88.66 33L83.53 33L83.53 21.74Q83.53 19.96 82.62 18.95Q81.70 17.94 80.08 17.94L80.08 17.94Q79.00 17.94 78.16 18.41Q77.31 18.88 76.84 19.77Q76.37 20.66 76.37 21.94ZM102.00 33.34L102.00 33.34Q98.62 33.34 95.94 31.80Q93.27 30.27 91.72 27.34Q90.18 24.42 90.18 20.29L90.18 20.29Q90.18 16.13 91.73 13.20Q93.29 10.27 95.97 8.73Q98.65 7.19 102.00 7.19L102.00 7.19Q104.17 7.19 106.04 7.80Q107.92 8.41 109.37 9.57Q110.82 10.73 111.74 12.42Q112.67 14.10 112.96 16.23L112.96 16.23L107.68 16.23Q107.51 15.19 107.02 14.38Q106.53 13.57 105.81 13.00Q105.08 12.42 104.14 12.12Q103.20 11.83 102.11 11.83L102.11 11.83Q100.12 11.83 98.62 12.82Q97.11 13.81 96.29 15.70Q95.47 17.58 95.47 20.29L95.47 20.29Q95.47 23.04 96.31 24.92Q97.15 26.80 98.64 27.75Q100.12 28.71 102.09 28.71L102.09 28.71Q103.18 28.71 104.11 28.41Q105.04 28.11 105.79 27.54Q106.53 26.97 107.02 26.15Q107.51 25.33 107.69 24.30L107.69 24.30L112.97 24.30Q112.77 26.06 111.92 27.69Q111.08 29.31 109.68 30.59Q108.27 31.87 106.34 32.61Q104.41 33.34 102.00 33.34ZM122.92 33.38L122.92 33.38Q120.05 33.38 117.95 32.14Q115.84 30.90 114.71 28.68Q113.57 26.47 113.57 23.53L113.57 23.53Q113.57 20.56 114.71 18.35Q115.84 16.13 117.95 14.89Q120.05 13.65 122.92 13.65L122.92 13.65Q125.81 13.65 127.90 14.89Q129.99 16.13 131.13 18.35Q132.27 20.56 132.27 23.53L132.27 23.53Q132.27 26.47 131.13 28.68Q129.99 30.90 127.90 32.14Q125.81 33.38 122.92 33.38ZM122.92 29.34L122.92 29.34Q124.29 29.34 125.21 28.58Q126.13 27.82 126.59 26.50Q127.05 25.17 127.05 23.52L127.05 23.52Q127.05 21.82 126.59 20.51Q126.13 19.19 125.21 18.44Q124.29 17.69 122.92 17.69L122.92 17.69Q121.55 17.69 120.64 18.44Q119.72 19.19 119.26 20.51Q118.80 21.82 118.80 23.52L118.80 23.52Q118.80 25.17 119.26 26.50Q119.72 27.82 120.64 28.58Q121.55 29.34 122.92 29.34ZM138.69 33L133.56 33L133.56 13.89L138.31 13.89L138.57 18.64L138.19 18.64Q138.64 16.88 139.50 15.77Q140.37 14.66 141.53 14.13Q142.69 13.60 143.97 13.60L143.97 13.60Q146.04 13.60 147.30 14.91Q148.57 16.22 149.17 18.95L149.17 18.95L148.57 18.95Q149.00 17.12 149.96 15.94Q150.93 14.75 152.25 14.18Q153.58 13.60 155.03 13.60L155.03 13.60Q156.79 13.60 158.16 14.37Q159.54 15.14 160.33 16.59Q161.13 18.03 161.13 20.11L161.13 20.11L161.13 33L156.00 33L156.00 21.09Q156.00 19.46 155.12 18.68Q154.24 17.89 152.96 17.89L152.96 17.89Q152.00 17.89 151.29 18.31Q150.58 18.73 150.20 19.48Q149.82 20.23 149.82 21.24L149.82 21.24L149.82 33L144.86 33L144.86 20.95Q144.86 19.55 144.03 18.72Q143.20 17.89 141.89 17.89L141.89 17.89Q140.98 17.89 140.25 18.30Q139.53 18.71 139.11 19.51Q138.69 20.30 138.69 21.45L138.69 21.45L138.69 33ZM168.36 33L163.23 33L163.23 13.89L167.98 13.89L168.24 18.64L167.86 18.64Q168.30 16.88 169.17 15.77Q170.03 14.66 171.19 14.13Q172.36 13.60 173.64 13.60L173.64 13.60Q175.70 13.60 176.97 14.91Q178.23 16.22 178.83 18.95L178.83 18.95L178.23 18.95Q178.66 17.12 179.63 15.94Q180.59 14.75 181.92 14.18Q183.24 13.60 184.69 13.60L184.69 13.60Q186.45 13.60 187.83 14.37Q189.21 15.14 190.00 16.59Q190.80 18.03 190.80 20.11L190.80 20.11L190.80 33L185.67 33L185.67 21.09Q185.67 19.46 184.79 18.68Q183.91 17.89 182.63 17.89L182.63 17.89Q181.67 17.89 180.96 18.31Q180.25 18.73 179.87 19.48Q179.48 20.23 179.48 21.24L179.48 21.24L179.48 33L174.53 33L174.53 20.95Q174.53 19.55 173.70 18.72Q172.87 17.89 171.55 17.89L171.55 17.89Q170.65 17.89 169.92 18.30Q169.19 18.71 168.77 19.51Q168.36 20.30 168.36 21.45L168.36 21.45L168.36 33ZM201.53 33.38L201.53 33.38Q198.60 33.38 196.48 32.18Q194.36 30.98 193.23 28.78Q192.09 26.57 192.09 23.55L192.09 23.55Q192.09 20.59 193.22 18.37Q194.35 16.15 196.42 14.90Q198.48 13.65 201.27 13.65L201.27 13.65Q203.15 13.65 204.77 14.25Q206.40 14.85 207.63 16.06Q208.86 17.26 209.55 19.07Q210.24 20.88 210.24 23.34L210.24 23.34L210.24 24.78L194.19 24.78L194.19 21.57L207.73 21.57L205.34 22.42Q205.34 20.93 204.88 19.83Q204.43 18.73 203.53 18.12Q202.64 17.52 201.30 17.52L201.30 17.52Q199.99 17.52 199.06 18.13Q198.12 18.75 197.65 19.80Q197.17 20.85 197.17 22.20L197.17 22.20L197.17 24.47Q197.17 26.13 197.72 27.26Q198.28 28.39 199.28 28.95Q200.28 29.51 201.61 29.51L201.61 29.51Q202.52 29.51 203.25 29.26Q203.99 29.00 204.51 28.50Q205.03 27.99 205.30 27.26L205.30 27.26L209.95 28.13Q209.49 29.70 208.34 30.89Q207.20 32.08 205.48 32.73Q203.76 33.38 201.53 33.38ZM216.60 33L211.47 33L211.47 13.89L216.43 13.89L216.43 17.23L216.63 17.23Q217.16 15.45 218.40 14.54Q219.64 13.64 221.25 13.64L221.25 13.64Q221.64 13.64 222.09 13.68Q222.54 13.72 222.90 13.81L222.90 13.81L222.90 18.39Q222.56 18.27 221.91 18.20Q221.26 18.13 220.68 18.13L220.68 18.13Q219.52 18.13 218.58 18.64Q217.64 19.14 217.12 20.04Q216.60 20.93 216.60 22.13L216.60 22.13L216.60 33ZM231.99 33.38L231.99 33.38Q229.10 33.38 227.01 32.14Q224.92 30.90 223.78 28.68Q222.64 26.47 222.64 23.53L222.64 23.53Q222.64 20.56 223.78 18.35Q224.92 16.13 227.01 14.89Q229.10 13.65 231.99 13.65L231.99 13.65Q233.68 13.65 235.12 14.10Q236.56 14.54 237.67 15.36Q238.78 16.18 239.50 17.36Q240.21 18.54 240.49 20.01L240.49 20.01L235.72 20.90Q235.56 20.15 235.24 19.56Q234.92 18.97 234.45 18.55Q233.99 18.13 233.39 17.91Q232.78 17.69 232.04 17.69L232.04 17.69Q230.68 17.69 229.75 18.42Q228.81 19.16 228.34 20.47Q227.87 21.79 227.87 23.52L227.87 23.52Q227.87 25.22 228.34 26.53Q228.81 27.84 229.75 28.59Q230.68 29.34 232.04 29.34L232.04 29.34Q232.78 29.34 233.39 29.11Q234.01 28.88 234.49 28.45Q234.97 28.01 235.29 27.39Q235.62 26.78 235.75 26.01L235.75 26.01L240.52 26.88Q240.25 28.40 239.53 29.59Q238.81 30.78 237.70 31.63Q236.59 32.49 235.15 32.93Q233.70 33.38 231.99 33.38ZM250.40 33.38L250.40 33.38Q247.47 33.38 245.35 32.18Q243.24 30.98 242.10 28.78Q240.96 26.57 240.96 23.55L240.96 23.55Q240.96 20.59 242.09 18.37Q243.22 16.15 245.29 14.90Q247.35 13.65 250.14 13.65L250.14 13.65Q252.02 13.65 253.64 14.25Q255.27 14.85 256.50 16.06Q257.73 17.26 258.42 19.07Q259.11 20.88 259.11 23.34L259.11 23.34L259.11 24.78L243.06 24.78L243.06 21.57L256.60 21.57L254.21 22.42Q254.21 20.93 253.75 19.83Q253.30 18.73 252.40 18.12Q251.51 17.52 250.17 17.52L250.17 17.52Q248.86 17.52 247.93 18.13Q247.00 18.75 246.52 19.80Q246.04 20.85 246.04 22.20L246.04 22.20L246.04 24.47Q246.04 26.13 246.59 27.26Q247.15 28.39 248.15 28.95Q249.15 29.51 250.48 29.51L250.48 29.51Q251.39 29.51 252.12 29.26Q252.86 29.00 253.38 28.50Q253.90 27.99 254.17 27.26L254.17 27.26L258.82 28.13Q258.36 29.70 257.22 30.89Q256.07 32.08 254.35 32.73Q252.64 33.38 250.40 33.38Z" fill="#000000"></path></g>
        
      </svg>